<svg width="26" height="21" viewBox="0 0 26 21" fill="none" xmlns="http://www.w3.org/2000/svg">
<path d="M25 10.5H1M25 10.5V17.625C25 18.2549 24.7471 18.859 24.2971 19.3044C23.847 19.7498 23.2365 20 22.6 20H3.4C2.76348 20 2.15303 19.7498 1.70294 19.3044C1.25286 18.859 1 18.2549 1 17.625V10.5M25 10.5L20.86 2.31813C20.6613 1.92244 20.355 1.58944 19.9755 1.35658C19.5961 1.12372 19.1585 1.00023 18.712 1H7.288C6.8415 1.00023 6.40392 1.12372 6.02445 1.35658C5.64499 1.58944 5.33869 1.92244 5.14 2.31813L1 10.5M5.8 15.25H5.812M10.6 15.25H10.612" stroke="white" stroke-width="1.5" stroke-linecap="round" stroke-linejoin="round"/>
</svg>
