<svg width="8" height="16" viewBox="0 0 8 16" fill="none" xmlns="http://www.w3.org/2000/svg">
<path d="M1.00963 15.5088C0.820267 15.2491 0.725586 14.9185 0.725586 14.5171C0.725586 14.1157 0.820267 13.7852 1.00963 13.5255L5.03789 8.00046L1.00963 2.47546C0.820267 2.21573 0.725586 1.88518 0.725586 1.48379C0.725586 1.0824 0.820267 0.751844 1.00963 0.492122C1.19899 0.2324 1.44 0.102539 1.73265 0.102539C2.0253 0.102539 2.26631 0.2324 2.45567 0.492122L7.20695 7.00879C7.31024 7.15046 7.38358 7.30393 7.42696 7.46921C7.47034 7.63448 7.49169 7.81157 7.491 8.00046C7.491 8.18934 7.46931 8.36643 7.42593 8.53171C7.38254 8.69698 7.30955 8.85046 7.20695 8.99212L2.45567 15.5088C2.26631 15.7685 2.0253 15.8984 1.73265 15.8984C1.44 15.8984 1.19899 15.7685 1.00963 15.5088Z" fill="#F7F7F7"/>
</svg>
