<svg width="22" height="28" viewBox="0 0 22 28" fill="none" xmlns="http://www.w3.org/2000/svg">
<path d="M3.47984 13.75H1.41406L10.71 1L20.006 13.75H17.9403M3.47984 13.75V23.6667C3.47984 24.4181 3.69748 25.1388 4.08489 25.6701C4.4723 26.2015 4.99773 26.5 5.54561 26.5H15.8745C16.4224 26.5 16.9478 26.2015 17.3352 25.6701C17.7226 25.1388 17.9403 24.4181 17.9403 23.6667V13.75" stroke="#F7F7F7" stroke-width="2" stroke-linecap="round" stroke-linejoin="round"/>
<path d="M7.61133 26.5003V18.0003C7.61133 17.2489 7.82897 16.5282 8.21638 15.9969C8.60379 15.4655 9.12923 15.167 9.6771 15.167H11.7429C12.2908 15.167 12.8162 15.4655 13.2036 15.9969C13.591 16.5282 13.8087 17.2489 13.8087 18.0003V26.5003" stroke="#F7F7F7" stroke-width="2" stroke-linecap="round" stroke-linejoin="round"/>
</svg>
