<svg width="21" height="23" viewBox="0 0 21 23" fill="none" xmlns="http://www.w3.org/2000/svg">
<path fill-rule="evenodd" clip-rule="evenodd" d="M14.9229 8.02017C18.0174 8.05683 20.5078 10.3825 20.5312 13.6695L20.5811 21.0025C20.5811 21.7899 19.8303 22.5407 19.0614 22.5407L10.9273 22.5415C10.034 22.5415 9.30132 21.8081 9.30132 20.9844V18.9334L6.06017 18.8968C5.23609 18.8787 4.48531 18.2741 4.44866 17.3038V16.901H1.64734C0.915089 16.901 0.10913 16.3335 0.0136719 15.4442V10.2906C0.0136719 8.36737 1.79395 6.44531 3.89967 6.44531C5.00852 6.44531 5.7307 6.68335 6.66474 7.43413C7.26891 7.06801 7.91013 6.82997 8.88042 6.82997C10.3489 6.82997 11.7188 7.47079 12.3963 8.47813C13.0552 8.09348 13.9663 8.0089 14.9229 8.02017Z" fill="#F7F7F7"/>
<path fill-rule="evenodd" clip-rule="evenodd" d="M15.1404 6.84722C13.2526 6.84722 11.7168 5.31143 11.7168 3.42361C11.7168 1.53579 13.2526 0 15.1404 0C17.0282 0 18.564 1.53579 18.564 3.42361C18.564 5.31143 17.0278 6.84722 15.1404 6.84722Z" fill="#F7F7F7"/>
<path fill-rule="evenodd" clip-rule="evenodd" d="M8.52702 5.78744C7.19423 5.78744 6.11035 4.70356 6.11035 3.37077C6.11035 2.03798 7.19423 0.954102 8.52702 0.954102C9.85981 0.954102 10.9437 2.03798 10.9437 3.37077C10.9437 4.70356 9.85941 5.78744 8.52702 5.78744Z" fill="#F7F7F7"/>
<path fill-rule="evenodd" clip-rule="evenodd" d="M3.43891 5.63954C2.21769 5.63954 1.22363 4.64589 1.22363 3.42426C1.22363 2.20264 2.21769 1.20898 3.43891 1.20898C4.66013 1.20898 5.65419 2.20264 5.65419 3.42426C5.65419 4.64589 4.66054 5.63954 3.43891 5.63954Z" fill="#F7F7F7"/>
<path fill-rule="evenodd" clip-rule="evenodd" d="M15.1404 6.84722C13.2526 6.84722 11.7168 5.31143 11.7168 3.42361C11.7168 1.53579 13.2526 0 15.1404 0C17.0282 0 18.564 1.53579 18.564 3.42361C18.564 5.31143 17.0278 6.84722 15.1404 6.84722Z" fill="#F7F7F7"/>
<path fill-rule="evenodd" clip-rule="evenodd" d="M8.52702 5.78744C7.19423 5.78744 6.11035 4.70356 6.11035 3.37077C6.11035 2.03798 7.19423 0.954102 8.52702 0.954102C9.85981 0.954102 10.9437 2.03798 10.9437 3.37077C10.9437 4.70356 9.85941 5.78744 8.52702 5.78744Z" fill="#F7F7F7"/>
<path fill-rule="evenodd" clip-rule="evenodd" d="M3.43891 5.63954C2.21769 5.63954 1.22363 4.64589 1.22363 3.42426C1.22363 2.20264 2.21769 1.20898 3.43891 1.20898C4.66013 1.20898 5.65419 2.20264 5.65419 3.42426C5.65419 4.64589 4.66054 5.63954 3.43891 5.63954Z" fill="#F7F7F7"/>
<path fill-rule="evenodd" clip-rule="evenodd" d="M14.9229 8.02017C18.0174 8.05683 20.5078 10.3825 20.5312 13.6695L20.5811 21.0025C20.5811 21.7899 19.8303 22.5407 19.0614 22.5407L10.9273 22.5415C10.034 22.5415 9.30132 21.8081 9.30132 20.9844V18.9334L6.06017 18.8968C5.23609 18.8787 4.48531 18.2741 4.44866 17.3038V16.901H1.64734C0.915089 16.901 0.10913 16.3335 0.0136719 15.4442V10.2906C0.0136719 8.36737 1.79395 6.44531 3.89967 6.44531C5.00852 6.44531 5.7307 6.68335 6.66474 7.43413C7.26891 7.06801 7.91013 6.82997 8.88042 6.82997C10.3489 6.82997 11.7188 7.47079 12.3963 8.47813C13.0552 8.09348 13.9663 8.0089 14.9229 8.02017Z" fill="#F7F7F7"/>
</svg>
