<svg width="22" height="21" viewBox="0 0 22 21" fill="none" xmlns="http://www.w3.org/2000/svg">
<path d="M7.975 0C6.92177 0 6.05 0.875946 6.05 1.93421V4.97368H3.025C1.3574 4.97368 0 6.33758 0 8.01316V9.94737H4.4V9.67105C4.4 9.21347 4.7696 8.8421 5.225 8.8421H6.875C7.3304 8.8421 7.7 9.21347 7.7 9.67105V9.94737H14.3V9.67105C14.3 9.21347 14.6696 8.8421 15.125 8.8421H16.775C17.2304 8.8421 17.6 9.21347 17.6 9.67105V9.94737H22V8.01316C22 6.33758 20.6426 4.97368 18.975 4.97368H15.95V1.93421C15.95 0.875946 15.0782 0 14.025 0H7.975ZM7.975 1.65789H14.025C14.1873 1.65789 14.3 1.77116 14.3 1.93421V4.97368H7.7V1.93421C7.7 1.77116 7.81273 1.65789 7.975 1.65789ZM0 11.6053V17.9605C0 19.6361 1.3574 21 3.025 21H18.975C20.6426 21 22 19.6361 22 17.9605V11.6053H17.6V11.8816C17.6 12.3392 17.2304 12.7105 16.775 12.7105H15.125C14.6696 12.7105 14.3 12.3392 14.3 11.8816V11.6053H7.7V11.8816C7.7 12.3392 7.3304 12.7105 6.875 12.7105H5.225C4.7696 12.7105 4.4 12.3392 4.4 11.8816V11.6053H0Z" fill="#F7F7F7"/>
</svg>
