<svg width="19" height="20" viewBox="0 0 19 20" fill="none" xmlns="http://www.w3.org/2000/svg">
<path d="M9.50195 0C5.6478 0 2.50195 3.14585 2.50195 7C2.50195 10.8541 5.6478 14 9.50195 14C13.3561 14 16.502 10.8541 16.502 7C16.502 3.14585 13.3561 0 9.50195 0ZM9.50195 2C12.2752 2 14.502 4.22673 14.502 7C14.502 9.77327 12.2752 12 9.50195 12C6.72868 12 4.50195 9.77327 4.50195 7C4.50195 4.22673 6.72868 2 9.50195 2ZM9.50195 5C8.97152 5 8.46281 5.21071 8.08774 5.58579C7.71267 5.96086 7.50195 6.46957 7.50195 7C7.50195 7.53043 7.71267 8.03914 8.08774 8.41421C8.46281 8.78929 8.97152 9 9.50195 9C10.0324 9 10.5411 8.78929 10.9162 8.41421C11.2912 8.03914 11.502 7.53043 11.502 7C11.502 6.46957 11.2912 5.96086 10.9162 5.58579C10.5411 5.21071 10.0324 5 9.50195 5ZM2.50195 16C1.40195 16 0.501953 16.9 0.501953 18C0.501953 19.1 1.40195 20 2.50195 20H16.502C17.602 20 18.502 19.1 18.502 18C18.502 16.9 17.602 16 16.502 16H12.9629C12.2729 17.2 10.982 18 9.50195 18C8.02195 18 6.73102 17.2 6.04102 16H2.50195Z" fill="#F7F7F7"/>
</svg>
