<svg width="23" height="17" viewBox="0 0 23 17" fill="none" xmlns="http://www.w3.org/2000/svg">
<path d="M13.7439 0C15.1357 0 16.2683 1.1441 16.2683 2.55V6.5144C16.2683 6.6691 16.3895 6.8 16.5325 6.8C17.0626 6.8 17.9181 5.1 19.8047 5.1C21.6262 5.1 23 6.562 23 8.5C23 10.438 21.6262 11.9 19.8047 11.9C17.9181 11.9 17.0626 10.2 16.5325 10.2C16.3895 10.2 16.2683 10.3309 16.2683 10.4856V14.45C16.2683 15.8559 15.1357 17 13.7439 17H2.52439C1.13261 17 0 15.8559 0 14.45V10.4856C0 10.0668 0.311902 9.63333 0.83361 9.63333C1.6689 9.63333 2.54122 11.3333 4.14561 11.3333C5.6681 11.3333 6.73171 10.1683 6.73171 8.5C6.73171 6.83173 5.6681 5.66667 4.14561 5.66667C2.54122 5.66667 1.66946 7.36667 0.83361 7.36667C0.311902 7.36667 0 6.93317 0 6.5144V2.55C0 1.1441 1.13261 0 2.52439 0H13.7439Z" fill="#F7F7F7"/>
</svg>
