<svg width="21" height="23" viewBox="0 0 21 23" fill="none" xmlns="http://www.w3.org/2000/svg">
<path d="M20.6098 9.58024L17.9125 9.12099C17.7546 8.55715 17.5387 8.01519 17.2686 7.50222L18.8431 5.16463C18.9705 4.97589 18.9485 4.71869 18.792 4.55515L17.0171 2.70724C16.8587 2.54274 16.6095 2.52135 16.4279 2.65779L14.2176 4.31269C13.7206 4.0265 13.1957 3.79925 12.6512 3.63428L12.1807 0.836022C12.1423 0.608776 11.9529 0.442383 11.7311 0.442383H9.22097C8.99734 0.442383 8.80657 0.611153 8.77051 0.841252L8.3342 3.6243C7.78653 3.78832 7.26076 4.01319 6.76558 4.29558L4.5612 2.65542C4.3791 2.51992 4.13127 2.54179 3.97291 2.70581L2.1989 4.55373C2.04236 4.71679 2.02045 4.97351 2.14779 5.16225L3.69907 7.47417C3.42295 7.99474 3.20297 8.54574 3.04278 9.11909L0.381545 9.58071C0.161563 9.61874 0 9.81746 0 10.0495V12.6642C0 12.8948 0.158825 13.0921 0.376525 13.1325L3.03776 13.6241C3.19704 14.196 3.41702 14.747 3.69405 15.269L2.1236 17.5571C1.99398 17.7459 2.01452 18.005 2.17198 18.1699L3.94643 20.0198C4.10298 20.1828 4.34989 20.2056 4.53107 20.073L6.75371 18.4514C7.25255 18.7371 7.77968 18.9639 8.32599 19.1284L8.77143 21.9147C8.80748 22.1434 8.9978 22.3112 9.22097 22.3112H11.7311C11.9525 22.3112 12.1419 22.1458 12.1802 21.919L12.6572 19.1189C13.2044 18.951 13.7288 18.7228 14.2226 18.4366L16.4612 20.0725C16.6428 20.2061 16.8893 20.1828 17.0463 20.0198L18.8208 18.1699C18.9787 18.005 18.9992 17.7449 18.8682 17.5557L17.2718 15.2466C17.5424 14.7332 17.7574 14.1903 17.9139 13.6264L20.6148 13.1325C20.8335 13.0926 20.9923 12.8948 20.9923 12.6642V10.0495C20.9927 9.81651 20.8307 9.61779 20.6098 9.58024ZM10.4961 14.7047C8.73172 14.7047 7.30138 13.2147 7.30138 11.3768C7.30138 9.53887 8.73172 8.04894 10.4961 8.04894C12.2606 8.04894 13.6909 9.53887 13.6909 11.3768C13.6909 13.2147 12.2606 14.7047 10.4961 14.7047Z" fill="#5F5F60"/>
</svg>
