<svg width="8" height="6" viewBox="0 0 8 6" fill="none" xmlns="http://www.w3.org/2000/svg">
<path d="M0.995451 0.52119C1.10305 0.384667 1.23999 0.316406 1.40628 0.316406C1.57256 0.316406 1.70951 0.384667 1.8171 0.521191L4.10599 3.42541L6.39488 0.521191C6.50248 0.384668 6.63942 0.316406 6.80571 0.316406C6.97199 0.316406 7.10894 0.384668 7.21653 0.521191C7.32413 0.657714 7.37793 0.831471 7.37793 1.04246C7.37793 1.25345 7.32413 1.42721 7.21653 1.56373L4.51682 4.98922C4.45813 5.06369 4.39455 5.11656 4.32608 5.14784C4.25761 5.17911 4.18424 5.1945 4.10599 5.19401C4.02774 5.19401 3.95438 5.17837 3.88591 5.14709C3.81744 5.11582 3.75386 5.06319 3.69517 4.98922L0.995451 1.56373C0.887854 1.42721 0.834054 1.25345 0.834054 1.04246C0.834054 0.83147 0.887854 0.657714 0.995451 0.52119Z" fill="#5F5F60"/>
</svg>
