<svg width="13" height="13" viewBox="0 0 13 13" fill="none" xmlns="http://www.w3.org/2000/svg">
<g clip-path="url(#clip0_149_760)">
<path d="M11.9163 6.49967C11.9163 9.49122 9.49122 11.9163 6.49967 11.9163M11.9163 6.49967C11.9163 3.50813 9.49122 1.08301 6.49967 1.08301M11.9163 6.49967H1.08301M6.49967 11.9163C3.50813 11.9163 1.08301 9.49122 1.08301 6.49967M6.49967 11.9163C7.85453 10.4331 8.6245 8.50816 8.66634 6.49967C8.6245 4.49119 7.85453 2.56628 6.49967 1.08301M6.49967 11.9163C5.14481 10.4331 4.37485 8.50816 4.33301 6.49967C4.37485 4.49119 5.14481 2.56628 6.49967 1.08301M1.08301 6.49967C1.08301 3.50813 3.50813 1.08301 6.49967 1.08301" stroke="black" stroke-width="1.5" stroke-linecap="round" stroke-linejoin="round"/>
</g>
<defs>
<clipPath id="clip0_149_760">
<rect width="13" height="13" fill="white"/>
</clipPath>
</defs>
</svg>
