<svg width="13" height="13" viewBox="0 0 13 13" fill="none" xmlns="http://www.w3.org/2000/svg">
<path fill-rule="evenodd" clip-rule="evenodd" d="M5.47387 12.2778C5.47387 12.0862 5.40178 11.9025 5.27346 11.7671C5.14514 11.6316 4.9711 11.5556 4.78963 11.5556H1.36847V1.44444H4.78963C4.9711 1.44444 5.14514 1.36835 5.27346 1.23291C5.40178 1.09747 5.47387 0.913767 5.47387 0.722222C5.47387 0.530677 5.40178 0.346977 5.27346 0.211534C5.14514 0.076091 4.9711 0 4.78963 0H1.36847C1.00553 0 0.657452 0.152182 0.400815 0.423068C0.144177 0.693954 0 1.06135 0 1.44444V11.5556C0 11.9386 0.144177 12.306 0.400815 12.5769C0.657452 12.8478 1.00553 13 1.36847 13H4.78963C4.9711 13 5.14514 12.9239 5.27346 12.7885C5.40178 12.653 5.47387 12.4693 5.47387 12.2778Z" fill="black"/>
<path d="M12.8045 7.0064C12.9296 6.87212 12.9999 6.69138 13.0002 6.50301V6.49868C12.9998 6.30785 12.9277 6.12498 12.7997 5.99023L10.0628 3.10135C9.99963 3.03237 9.92413 2.97735 9.84065 2.93949C9.75717 2.90164 9.66739 2.88172 9.57654 2.88089C9.48568 2.88005 9.39559 2.89833 9.3115 2.93464C9.22741 2.97095 9.15101 3.02458 9.08676 3.09239C9.02252 3.1602 8.97171 3.24084 8.93731 3.3296C8.9029 3.41836 8.88559 3.51346 8.88638 3.60936C8.88717 3.70525 8.90605 3.80002 8.94191 3.88814C8.97777 3.97625 9.02989 4.05594 9.09524 4.12257L10.6642 5.77862H4.10513C3.92366 5.77862 3.74962 5.85471 3.62131 5.99016C3.49299 6.1256 3.4209 6.3093 3.4209 6.50085C3.4209 6.69239 3.49299 6.87609 3.62131 7.01153C3.74962 7.14698 3.92366 7.22307 4.10513 7.22307H10.6642L9.09524 8.87912C8.97061 9.01534 8.90164 9.19777 8.9032 9.38713C8.90476 9.5765 8.97672 9.75764 9.10358 9.89155C9.23044 10.0255 9.40206 10.1014 9.58146 10.1031C9.76086 10.1047 9.9337 10.0319 10.0628 9.90035L12.7997 7.01146L12.8045 7.0064Z" fill="black"/>
</svg>
