<svg width="13" height="13" viewBox="0 0 13 13" fill="none" xmlns="http://www.w3.org/2000/svg">
<g clip-path="url(#clip0_149_38)">
<path d="M3.79167 5.95878V3.79212C3.79099 3.12048 4.0399 2.47254 4.49008 1.9741C4.94025 1.47566 5.55957 1.16227 6.22781 1.09477C6.89606 1.02727 7.56554 1.21048 8.1063 1.60883C8.64706 2.00717 9.02051 2.59224 9.15417 3.25045M2.70833 5.95878H10.2917C10.89 5.95878 11.375 6.44381 11.375 7.04212V10.8338C11.375 11.4321 10.89 11.9171 10.2917 11.9171H2.70833C2.11002 11.9171 1.625 11.4321 1.625 10.8338V7.04212C1.625 6.44381 2.11002 5.95878 2.70833 5.95878Z" stroke="black" stroke-width="1.5" stroke-linecap="round" stroke-linejoin="round"/>
</g>
<defs>
<clipPath id="clip0_149_38">
<rect width="13" height="13" fill="white"/>
</clipPath>
</defs>
</svg>
