<svg width="19" height="19" viewBox="0 0 19 19" fill="none" xmlns="http://www.w3.org/2000/svg">
<path d="M8.15834 13.525L14.9146 6.76875L13.5729 5.42708L8.15834 10.8417L5.42708 8.11042L4.08542 9.45208L8.15834 13.525ZM2.79167 18.125C2.26458 18.125 1.81321 17.9372 1.43754 17.5615C1.06188 17.1858 0.874363 16.7348 0.875002 16.2083V2.79167C0.875002 2.26458 1.06283 1.81321 1.4385 1.43754C1.81417 1.06188 2.26522 0.874363 2.79167 0.875002H16.2083C16.7354 0.875002 17.1868 1.06283 17.5625 1.4385C17.9381 1.81417 18.1256 2.26522 18.125 2.79167V16.2083C18.125 16.7354 17.9372 17.1868 17.5615 17.5625C17.1858 17.9381 16.7348 18.1256 16.2083 18.125H2.79167ZM2.79167 16.2083H16.2083V2.79167H2.79167V16.2083Z" fill="#FF6D03"/>
</svg>
